<svg xmlns="http://www.w3.org/2000/svg" xmlns:xlink="http://www.w3.org/1999/xlink" width="64" height="64"><defs><linearGradient id="a"><stop offset="0" stop-color="#cf000f"/><stop offset="1" stop-color="#d91e18"/></linearGradient><linearGradient xlink:href="#a" id="d" x1="32" y1="61" x2="32" y2="3" gradientUnits="userSpaceOnUse"/><linearGradient gradientTransform="matrix(1 0 0 -1 -14 78)" xlink:href="#b" id="f" x1="54" y1="31" x2="40" y2="17" gradientUnits="userSpaceOnUse"/><linearGradient id="b"><stop offset="0" stop-color="#383e51"/><stop offset="1" stop-color="#655c6f" stop-opacity="0"/></linearGradient><linearGradient xlink:href="#c" id="e" x1="47" y1="61" x2="47" y2="47" gradientUnits="userSpaceOnUse"/><linearGradient id="c"><stop offset="0" stop-color="#fb7d80"/><stop offset="1" stop-color="#fcbcbe"/></linearGradient></defs><path d="M10 3v58h30l14-14V3H10z" fill="url(#d)"/><path fill="#2e3132" fill-opacity=".294" d="M10 60h30v1H10z"/><path fill="#fff" fill-opacity=".41" d="M10 3h44v1H10z"/><path d="M54 47L40 61V47z" fill="url(#e)" fill-rule="evenodd"/><path d="M26 61l14-14v14z" opacity=".2" fill="url(#f)" fill-rule="evenodd"/><path d="M24.403 21c-.297.011-.616.09-.966.24-3.124 1.335-.823 4.4 3.16 7.204.023-.537.038-1.063.032-1.567-3.397-2.325-5.385-4.59-3.22-5.488 2.283-.946 3.18 1.732 3.22 5.488.213.144.427.287.65.434-.082-3.418-.831-6.098-2.58-6.296a1.957 1.957 0 0 0-.296-.013m2.877 6.31l-.407-.646-.517.445-.108.679.682 1.285.343-.165a38.979 38.979 0 0 0 7.597 3.9l.763.444 1.054.025c.972-.575.392-.788 3.923-1.225l-3.978.303c-3.07-1.188-6.505-3.185-9.354-5.046m7.654 5.482c.46.037 3.704-.53 5.132-.667 1.414-.136 3.15-.29 2.822 1.368.374-.87-.19-1.693-1.401-1.951-1.874-.42-5.484.904-6.553 1.25m2.07-.403c-.557.2-1.498.18-2.099.424.853.436 5.22 1.595 6.987 1.263.282-.044 1.056-.259 1.085-.882-.091 1.117-5.324.293-5.973-.805m1.165.018c-.459-.146-2.822.582-3.297.402-2.906.968-6.089 2.362-8.677 3.849l-.75.148-.58 1.034-.777 1.012.877.873.685-1.126c3.03-1.817 9.022-4.776 12.517-6.193M25.648 38.6a49.2 49.2 0 0 0-1.06.655c-.777 2.204-1.682 3.685-2.548 3.621 1.337.647 2.638-1.31 3.608-4.276m-3.608 4.276c-2.039-1.203 1.582-2.981 2.549-3.621.218-.622.423-1.297.617-2.015-3.043 1.894-4.95 3.858-3.929 5.156.246.313.506.46.765.478m3.164-5.636c.316-.196.648-.389.987-.583.6-2.419.997-5.2 1.08-7.749-.231-.154-.457-.31-.677-.465-.128 2.869-.662 6.109-1.388 8.797" fill="#fcbcbe"/></svg>