<svg xmlns="http://www.w3.org/2000/svg" xmlns:xlink="http://www.w3.org/1999/xlink" width="64" height="64"><defs><linearGradient xlink:href="#a" id="d" x1="32" y1="61" x2="32" y2="3" gradientUnits="userSpaceOnUse"/><linearGradient gradientTransform="matrix(1 0 0 -1 -14 78)" xlink:href="#b" id="f" x1="54" y1="31" x2="40" y2="17" gradientUnits="userSpaceOnUse"/><linearGradient id="b"><stop offset="0" stop-color="#383e51"/><stop offset="1" stop-color="#655c6f" stop-opacity="0"/></linearGradient><linearGradient xlink:href="#c" id="e" x1="47" y1="61" x2="47" y2="47" gradientUnits="userSpaceOnUse"/><linearGradient id="c"><stop offset="0" stop-color="#f7ab89"/><stop offset="1" stop-color="#fbd2bf"/></linearGradient><linearGradient id="a"><stop offset="0" stop-color="#f27935"/><stop offset="1" stop-color="#f2784b"/></linearGradient></defs><path d="M10 3v58h30l14-14V3H10z" fill="url(#d)"/><path fill="#2e3132" fill-opacity=".294" d="M10 60h30v1H10z"/><path fill="#fff" fill-opacity=".41" d="M10 3h44v1H10z"/><path d="M54 47L40 61V47z" fill="url(#e)" fill-rule="evenodd"/><path d="M26 61l14-14v14z" opacity=".2" fill="url(#f)" fill-rule="evenodd"/><path style="text-decoration-line:none;text-decoration-style:solid;text-decoration-color:#000;isolation:auto;mix-blend-mode:normal" d="M19 21v19h11v2h-3v1h10v-1h-3v-2h11V21zm1 1h24v16H20zm10 4v8l5-4z" color="#000" overflow="visible" fill="#f7ab89"/></svg>