<svg xmlns="http://www.w3.org/2000/svg" xmlns:xlink="http://www.w3.org/1999/xlink" width="64" height="64"><defs><linearGradient id="c"><stop offset="0" stop-color="#c8e3fe"/><stop offset="1" stop-color="#fff"/></linearGradient><linearGradient id="a"><stop offset="0" stop-color="#22a7f0"/><stop offset="1" stop-color="#19b5fe"/></linearGradient><linearGradient xlink:href="#a" id="d" x1="32" y1="61" x2="32" y2="3" gradientUnits="userSpaceOnUse"/><linearGradient gradientTransform="matrix(1 0 0 -1 -14 78)" xlink:href="#b" id="f" x1="54" y1="31" x2="40" y2="17" gradientUnits="userSpaceOnUse"/><linearGradient id="b"><stop offset="0" stop-color="#383e51"/><stop offset="1" stop-color="#655c6f" stop-opacity="0"/></linearGradient><linearGradient xlink:href="#c" id="e" x1="47" y1="61" x2="47" y2="47" gradientUnits="userSpaceOnUse"/></defs><path d="M10 3v58h30l14-14V3H10z" fill="url(#d)"/><path fill="#2e3132" fill-opacity=".294" d="M10 60h30v1H10z"/><path fill="#fff" fill-opacity=".41" d="M10 3h44v1H10z"/><path d="M54 47L40 61V47z" fill="url(#e)" fill-rule="evenodd"/><path d="M26 61l14-14v14z" opacity=".2" fill="url(#f)" fill-rule="evenodd"/><path d="M21 21v1h22v-1H21zm0 3v1h22v-1H21zm0 3v1h11v-1H21zm0 4v1h22v-1H21zm0 3v1h9v-1h-9zm13 0v9h9v-9h-9zm1 1h7v7h-7v-7zm-14 1v1h5v-1h-5zm0 3v1h10v-1H21zm0 3v1h6v-1h-6z" fill="#fff"/></svg>