<svg xmlns="http://www.w3.org/2000/svg" width="95.222" height="78.054"><path fill-rule="evenodd" clip-rule="evenodd" fill="#FFF" d="M.558 9.992C.229 10.508 0 11.202 0 12.675c0 4.48 1.42 9.763 1.42 9.763 3.556 15.259 15.747 19.298 15.747 19.298v31.303a5.021 5.021 0 0 0 5.015 5.016H90.208a5.02 5.02 0 0 0 5.015-5.016V5.015A5.021 5.021 0 0 0 90.208 0H22.182a5.02 5.02 0 0 0-5.015 5.015v6.102C9.443 12.62 2.738 9.938 2.738 9.938s-1.707-.65-2.18.054z"/><path fill="#7BB010" d="M90.208 76.048a3.009 3.009 0 0 0 3.009-3.01V5.015a3.009 3.009 0 0 0-3.009-3.009H22.182a3.009 3.009 0 0 0-3.009 3.009v68.023a3.009 3.009 0 0 0 3.009 3.01h68.026z"/><path fill-rule="evenodd" clip-rule="evenodd" fill="#00662F" d="M70.204 12.274l-.005-.879-.845-.087-.863-.089a35.377 35.377 0 0 0-3.17-.126c-4.548 0-13.099.702-19.249 5.404-7.728 5.91-9.456 14.386-10.384 18.942-.153.754-.387 1.895-.507 2.144-.217.411-.542.868-.833 1.26a17.26 17.26 0 0 0-.674.909l-.034.051c-2.318 3.379-3.656 7.871-3.974 13.337-.125 1.728-.12 3.622.016 5.639l.007.087.004.053c.198 3.066.61 5.273.702 5.733a76.913 76.913 0 0 0 2.892 11.396h10.147c-.436-.988-4.656-10.654-5.886-16.953-1.034-5.288-.641-9.106 1.355-13.163 1.487-2.264 3.545-2.878 4.644-3.042.931-.138 2.066-.181 3.278-.226 4.532-.172 10.173-.386 14.432-5.373 8.922-10.444 8.956-23.582 8.953-24.136l-.006-.881z"/><path fill-rule="evenodd" clip-rule="evenodd" fill="#FFF" d="M41.364 76.048c-1.161-2.706-4.558-10.889-5.666-16.565-1.259-6.443-.41-10.556 1.577-14.547 1.61-2.518 3.958-3.673 6.002-3.978 4.444-.664 11.718.715 16.565-4.96 8.54-9.999 8.479-22.833 8.479-22.833s-12.981-1.327-21.129 4.904c-9.245 7.068-9.262 18.367-10.354 20.446-.273.52-.629 1.024-1.01 1.54a15.34 15.34 0 0 0-.622.836l-.029.039.001.002c-2.459 3.585-3.389 8.186-3.632 12.354-.116 1.601-.117 3.37.017 5.346.003.052.008.104.012.155.208 3.25.671 5.493.671 5.493v-.004a74.718 74.718 0 0 0 3.041 11.771l1.419.488h2.101l2.557-.487z"/><path fill-rule="evenodd" clip-rule="evenodd" fill="#00662F" d="M49.725 28.161c-3.066 3.492-3.629 5.499-3.629 5.499s-1.218 2.048-1.94.768c-.821-1.456.395-4.769 4.98-8.751 4.965-4.313 10.842-6.428 10.842-6.428s-5.929 3.989-10.253 8.912z"/><path fill-rule="evenodd" clip-rule="evenodd" fill="#FFF" d="M30.773 26.691l-4.914-1.938-9.595-3.148-5.851-3.391H6.435v7.023l8.425 8.72s7.723.727 8.425 0 4.446-.727 4.446-.727h2.574l.468-6.539z"/><path fill-rule="evenodd" clip-rule="evenodd" fill="#00662F" d="M28.111 30.859c-1.495.404-6.705-.463-10.001-2.067-8.792-4.28-11.39-9.163-11.39-9.163s5.924 4.908 11.488 6.526c5.562 1.619 9.217 2.089 9.751 2.137.534.049 1.077.156 1.388.498.602.658.049 1.721-1.236 2.069zm13.707 9.981c-.675-2.078-1.75-3.645-2.75-4.887l.013-.014a29.368 29.368 0 0 0-2.015-2.429l-.001-.001c-.352-.386-.694-.75-1.019-1.098-.511-1.126-.958-3.032-.958-3.032l-.001.001c-.407-2.095-1.194-5.354-2.555-8.294-.353-1.041-1.055-2.242-2.015-3.399a11.523 11.523 0 0 0-.928-1.063l-.015.027c-1.859-1.863-4.37-3.429-7.116-3.73-2.002-.222-3.451-.213-4.673-.098l.002-.007s-9.895 1.18-15.896-1.515c-.208-.12-.327-.192-.327-.192s-1.162 13.877 8.2 23.824l-.044.004s.447.514 1.276 1.225c3.119 2.906 5.908 3.955 8.332 4.039 2.595.454 5.624.299 8.974-1.078l-.004.006s3.895-1.413 5.705-.455c.386.361.752.769 1.078 1.224 1.588 1.886 2.3 3.717 1.948 6.379-.322 2.438-1.058 4.605-1.769 7.349l.625 4.526.518 1.857.078-.167 1.143 3.715c1.675-3.263 3.183-6.855 4.073-10.551 1.106-4.598 1.416-8.177.121-12.166zm-9.461 30.484l-1.627-5.491a342.238 342.238 0 0 1-5.053 10.215h7.64a52.036 52.036 0 0 1-.96-4.724z"/><path fill="#FFF" d="M59.419 69.682c-1.311.321-2.769.691-5.116.691-4.598 0-9.913-2.323-9.913-8.851 0-6.008 4.204-8.998 9.888-8.998 1.755 0 3.461.396 5.116.89l-.371 3.732c-1.482-.815-2.916-1.212-4.497-1.212-3.263 0-5.389 2.373-5.389 5.588 0 3.388 2.398 5.439 5.758 5.439 1.508 0 3.041-.396 4.302-.891l.222 3.612zM64.484 56.231h-4.251v-3.41h13.102v3.41h-4.252v13.846h-4.599V56.231zM77.637 63.129l2.225-6.749h.05l2.052 6.749h-4.327zm5.093-10.308h-5.638l-6.551 17.256h4.672l1.36-3.685h6.478l1.285 3.685h5.044l-6.65-17.256z"/></svg>